<svg id="Master_Line" enable-background="new 0 0 512 512" viewBox="0 0 512 512" xmlns="http://www.w3.org/2000/svg"><path d="m296.2 189.36s-52.2-207.06-156.6-149.64 107.88 187.92 107.88 187.92-151.38-93.96-217.5 13.93 118.32 111.36 219.24 41.76c0 0-95.7 224.46 53.94 196.62s8.38-201.68 8.38-201.68 106.46 144.26 162.14 57.26-146.16-107.88-146.16-107.88 223.01-58.42 155.88-156.6-187.2 118.31-187.2 118.31z" fill="#ffad2d"/><path d="m310.32 242.22c0 13.94-17.7 39.4-31.64 39.4s-18.85-25.46-18.85-39.4 11.3-34.57 25.25-34.57 25.24 20.63 25.24 34.57z" fill="#f2d1a0"/></svg>